# xmcd CD database file
#
# Track frame offsets:
#	182
#	11290
#	22785
#	35117
#	47717
#	60030
#	71212
#	82910
#	96732
#	110530
#	121962
#	133495
#
# Disc length: 1962 seconds
#
# Revision: 0
# Processed by: cddbd v1.5.2PL0 Copyright (c) Steve Scherf et al.
# Submitted via: CDex 1.51
#
DISCID=9e07a80c
DTITLE=Billy Taylor Trio - Custom Taylored
DYEAR=1960
DGENRE=Jazz
TTITLE0=Warming Up
TTITLE1=Easy Like
TTITLE2=That's Where It Is
TTITLE3=Afterthoughts
TTITLE4=Easy Walker
TTITLE5=Lonesome Lover
TTITLE6=Don't Bug Me
TTITLE7=Coffee Break
TTITLE8=You Know What I Mean
TTITLE9=Native Dancer
TTITLE10=Uncle Fuzzy
TTITLE11=No After Taste
EXTD=YEAR: 1960
EXTT0=
EXTT1=
EXTT2=
EXTT3=
EXTT4=
EXTT5=
EXTT6=
EXTT7=
EXTT8=
EXTT9=
EXTT10=
EXTT11=
PLAYORDER=
